Coordinates
version=1
nRows=19
nColumns=63
inDegrees=yes

Units are S.I. units (second, meters, Newtons, ...)
If the header above contains a line with 'inDegrees', this indicates whether rotational values are in degrees (yes) or radians (no).

endheader
time	pelvis_tilt	pelvis_list	pelvis_rotation	pelvis_tx	pelvis_ty	pelvis_tz	hip_flexion_r	hip_adduction_r	hip_rotation_r	knee_angle_r	knee_angle_r_beta	ankle_angle_r	subtalar_angle_r	mtp_angle_r	hip_flexion_l	hip_adduction_l	hip_rotation_l	knee_angle_l	knee_angle_l_beta	ankle_angle_l	subtalar_angle_l	mtp_angle_l	L5_S1_Flex_Ext	L5_S1_Lat_Bending	L5_S1_axial_rotation	L4_L5_Flex_Ext	L4_L5_Lat_Bending	L4_L5_axial_rotation	L3_L4_Flex_Ext	L3_L4_Lat_Bending	L3_L4_axial_rotation	L2_L3_Flex_Ext	L2_L3_Lat_Bending	L2_L3_axial_rotation	L1_L2_Flex_Ext	L1_L2_Lat_Bending	L1_L2_axial_rotation	L1_T12_Flex_Ext	L1_T12_Lat_Bending	L1_T12_axial_rotation	Abs_r3	Abs_r2	Abs_r1	Abs_t1	Abs_t2	neck_flexion	neck_bending	neck_rotation	arm_flex_r	arm_add_r	arm_rot_r	elbow_flex_r	pro_sup_r	wrist_flex_r	wrist_dev_r	arm_flex_l	arm_add_l	arm_rot_l	elbow_flex_l	pro_sup_l	wrist_flex_l	wrist_dev_l
0.000000	-2.328113	-5.006682	99.104566	0.086796	0.519769	0.796829	0.864564	2.472838	-10.715854	5.664856	0.098870	28.090824	16.847541	0.000000	2.558782	-1.812356	-9.662006	9.126504	0.159288	28.056242	13.833502	0.000000	0.124294	0.082867	-0.946393	0.230827	0.110213	-1.005543	0.204203	0.201483	-1.005543	0.142056	0.201483	-0.828094	0.115420	0.168982	-0.768945	0.071022	0.128361	-0.709795	0.887821	0.937407	-5.263556	0.000000	0.000000	17.452750	-1.357100	16.702601	15.243186	-11.479052	56.125095	61.365141	87.517948	32.724180	30.577925	12.087512	-7.917965	58.826073	49.055960	74.158194	0.139635	-1.116283
0.020833	-2.725919	-4.975329	99.616064	0.085928	0.519894	0.797099	0.609600	2.103253	-10.250414	5.634444	0.098340	27.977442	15.686071	0.000000	2.583018	-1.399236	-8.273681	9.267362	0.161746	27.525691	13.171380	0.000000	0.112284	0.028271	-0.928454	0.208522	0.037600	-0.986483	0.184471	0.068738	-0.986483	0.128329	0.068738	-0.812398	0.104267	0.057650	-0.754369	0.064159	0.043792	-0.696341	0.802031	0.319807	-5.163785	0.000000	0.000000	17.016657	-0.800328	15.674902	14.274205	-11.500794	55.502362	63.380072	67.938170	18.086807	29.314738	12.627227	-7.636174	59.061376	48.487836	74.036043	1.741317	0.443261
0.041667	-3.046273	-4.965108	100.115573	0.085098	0.519989	0.797490	0.424058	1.794894	-10.011866	5.606645	0.097854	27.911451	14.806715	0.000000	2.656026	-1.057588	-7.104654	9.421597	0.164438	27.116832	12.650991	0.000000	0.102821	-0.016221	-0.924966	0.190950	-0.021574	-0.982776	0.168925	-0.039440	-0.982776	0.117515	-0.039440	-0.809345	0.095480	-0.033078	-0.751535	0.058752	-0.025127	-0.693724	0.734443	-0.183497	-5.144382	0.000000	0.000000	16.637298	-0.353466	14.839829	13.443296	-11.558488	54.989265	65.065098	51.540755	6.004369	28.294463	13.109587	-7.400806	59.376144	48.031285	73.395984	2.756791	1.406398
0.062500	-3.295592	-4.972816	100.599876	0.084311	0.520057	0.797983	0.300135	1.543734	-9.972222	5.580669	0.097401	27.887398	14.181653	0.000000	2.770235	-0.782300	-6.138710	9.586973	0.167324	26.816781	12.257126	0.000000	0.095562	-0.051461	-0.933820	0.177468	-0.068443	-0.992184	0.156998	-0.125122	-0.992184	0.109218	-0.125122	-0.817092	0.088739	-0.104939	-0.758729	0.054604	-0.079713	-0.700365	0.682588	-0.582136	-5.193626	0.000000	0.000000	16.306318	-0.008084	14.179208	12.739789	-11.647009	54.575313	66.447108	38.077049	-3.743935	27.493534	13.537508	-7.208143	59.751761	47.678126	72.328911	3.255650	1.845130
0.083333	-3.480294	-4.995248	101.065756	0.083572	0.520100	0.798556	0.230029	1.345745	-10.103491	5.555725	0.096966	27.899831	13.783061	0.000000	2.918073	-0.568263	-5.359634	9.761253	0.170366	26.612653	11.974578	0.000000	0.090159	-0.078300	-0.952909	0.167434	-0.104139	-1.012466	0.148122	-0.190378	-1.012466	0.103042	-0.190378	-0.833795	0.083721	-0.159669	-0.774239	0.051517	-0.121286	-0.714682	0.643995	-0.885743	-5.299794	0.000000	0.000000	16.015364	0.244249	13.674864	12.153017	-11.761230	54.250019	67.552989	27.298399	-11.378907	26.888387	13.913907	-7.054467	60.169610	47.420177	70.925716	3.307484	1.831456
0.104167	-3.606798	-5.029201	101.509994	0.082886	0.520118	0.799189	0.205941	1.196901	-10.377685	5.531023	0.096535	27.943300	13.583119	0.000000	3.091970	-0.410365	-4.751211	9.942200	0.173524	26.491565	11.788136	0.000000	0.086266	-0.097589	-0.980125	0.160205	-0.129794	-1.041383	0.141727	-0.237278	-1.041383	0.098594	-0.237278	-0.857610	0.080107	-0.199004	-0.796352	0.049293	-0.151166	-0.735094	0.616193	-1.103947	-5.451164	0.000000	0.000000	15.756084	0.411963	13.308623	11.672311	-11.896025	54.002894	68.409629	18.956150	-17.121352	26.455457	14.241699	-6.936061	60.611073	47.249259	69.277292	2.981887	1.437379
0.125000	-3.681520	-5.071471	101.929374	0.082259	0.520115	0.799862	0.220067	1.093174	-10.766815	5.505773	0.096094	28.012352	13.554004	0.000000	3.284354	-0.303497	-4.297226	10.127577	0.176760	26.440632	11.682592	0.000000	0.083539	-0.110180	-1.013362	0.155140	-0.146540	-1.076697	0.137246	-0.267892	-1.076697	0.095477	-0.267892	-0.886691	0.077574	-0.224680	-0.823356	0.047734	-0.170669	-0.760021	0.596710	-1.246382	-5.636013	0.000000	0.000000	15.520125	0.503486	13.062309	11.287004	-12.046266	53.823449	69.043916	12.801649	-21.192070	26.171179	14.523801	-6.849207	61.057532	47.157191	67.474535	2.348449	0.734897
0.145833	-3.710880	-5.118853	102.320675	0.081695	0.520090	0.800553	0.264607	1.030538	-11.242890	5.479184	0.095630	28.101534	13.667894	0.000000	3.487655	-0.242547	-3.981464	10.315146	0.180033	26.446972	11.642736	0.000000	0.081630	-0.116925	-1.050510	0.151595	-0.155510	-1.116166	0.134110	-0.284291	-1.116166	0.093295	-0.284291	-0.919196	0.075802	-0.238433	-0.853539	0.046643	-0.181117	-0.787882	0.583076	-1.322677	-5.842619	0.000000	0.000000	15.299133	0.527250	12.917749	10.986427	-12.206828	53.701196	69.482738	8.586242	-23.811864	26.011987	14.763130	-6.790187	61.490372	47.135792	65.608336	1.476764	-0.203987
0.166667	-3.701294	-5.168143	102.680683	0.081201	0.520047	0.801243	0.331760	1.004964	-11.777923	5.450465	0.095129	28.205396	13.896969	0.000000	3.694300	-0.222406	-3.787710	10.502671	0.183306	26.497700	11.653360	0.000000	0.080194	-0.118674	-1.089462	0.148929	-0.157837	-1.157553	0.131751	-0.288544	-1.157553	0.091654	-0.288544	-0.953279	0.074469	-0.242000	-0.885188	0.045823	-0.183826	-0.817096	0.572821	-1.342465	-6.059259	0.000000	0.000000	15.084755	0.491684	12.856767	10.759912	-12.372583	53.625645	69.752983	6.061275	-25.201537	25.954317	14.962602	-6.755283	61.890974	47.176881	63.769590	0.436424	-1.307273
0.187500	-3.659181	-5.216138	103.006177	0.080781	0.519986	0.801910	0.413724	1.012426	-12.343924	5.418826	0.094576	28.318485	14.213405	0.000000	3.896720	-0.237962	-3.699749	10.687915	0.186539	26.579932	11.699255	0.000000	0.078886	-0.116279	-1.128110	0.146499	-0.154652	-1.198617	0.129601	-0.282722	-1.198617	0.090158	-0.282722	-0.987097	0.073253	-0.237117	-0.916590	0.045075	-0.180117	-0.846083	0.563473	-1.315376	-6.274212	0.000000	0.000000	14.868639	0.405218	12.861188	10.596790	-12.538406	53.586308	69.881539	4.978094	-25.581891	25.974604	15.125133	-6.740777	62.240722	47.272277	62.049191	-0.702981	-2.502961
0.208333	-3.590959	-5.259633	103.293941	0.080440	0.519910	0.802535	0.502698	1.048897	-12.912902	5.383476	0.093959	28.435349	14.589383	0.000000	4.087343	-0.284105	-3.701365	10.868640	0.189694	26.680784	11.765210	0.000000	0.077358	-0.110592	-1.164348	0.143662	-0.147088	-1.237120	0.127092	-0.268894	-1.237120	0.088413	-0.268894	-1.018804	0.071835	-0.225520	-0.946033	0.044202	-0.171308	-0.873261	0.552561	-1.251042	-6.475754	0.000000	0.000000	14.642431	0.276282	12.912838	10.486394	-12.699169	53.572697	69.895293	5.088046	-25.173729	26.049283	15.253640	-6.742952	62.520997	47.413801	60.538030	-1.871857	-3.719050
0.229167	-3.514115	-5.290825	103.512304	0.080267	0.519781	0.803066	0.587742	1.107341	-13.360371	5.346214	0.093309	28.531456	14.921751	0.000000	4.249294	-0.357275	-3.829767	11.041471	0.192710	26.804408	11.914731	0.000000	0.073842	-0.105233	-1.187781	0.137133	-0.139960	-1.262017	0.121316	-0.255864	-1.262017	0.084394	-0.255864	-1.039308	0.068570	-0.214591	-0.965072	0.042194	-0.163006	-0.890836	0.527449	-1.190418	-6.606082	0.000000	0.000000	14.494262	0.139547	12.917516	10.351834	-12.843412	53.537021	70.014878	3.534670	-26.089995	26.082288	15.432757	-6.725923	62.751607	47.438838	59.887805	-2.860039	-4.975124
0.250000	-3.417420	-5.314813	103.672453	0.080176	0.519635	0.803464	0.663873	1.193309	-13.716366	5.300250	0.092507	28.617715	15.242025	0.000000	4.374643	-0.448563	-3.937661	11.197839	0.195439	26.854990	11.899082	0.000000	0.070051	-0.096713	-1.210027	0.130092	-0.128628	-1.285653	0.115087	-0.235147	-1.285653	0.080062	-0.235147	-1.058773	0.065050	-0.197216	-0.983147	0.040027	-0.149808	-0.907520	0.500369	-1.094032	-6.729806	0.000000	0.000000	14.291893	-0.011718	13.014738	10.324089	-12.951559	53.521466	69.957180	4.808793	-25.306374	25.952584	15.519063	-6.728695	62.806234	47.525964	59.409908	-3.768433	-6.096398
0.270833	-3.313950	-5.323723	103.796221	0.080158	0.519493	0.803736	0.716444	1.296050	-14.011644	5.243862	0.091523	28.695398	15.559338	0.000000	4.464961	-0.559710	-4.106430	11.356524	0.198209	26.856103	11.880524	0.000000	0.065252	-0.087269	-1.226961	0.121179	-0.116068	-1.303647	0.107202	-0.212185	-1.303647	0.074576	-0.212185	-1.073591	0.060593	-0.177959	-0.996906	0.037285	-0.135179	-0.920221	0.466086	-0.987202	-6.823992	0.000000	0.000000	14.000395	-0.180207	13.117979	10.371191	-13.035008	53.532490	69.735018	8.394556	-23.122225	25.970630	15.540926	-6.765364	62.691616	47.697932	59.438410	-4.473220	-6.957644
0.291667	-3.211776	-5.306818	103.850898	0.080229	0.519376	0.803892	0.738035	1.407348	-14.199100	5.185361	0.090502	28.758469	15.847017	0.000000	4.497311	-0.675203	-4.287095	11.495735	0.200638	26.799193	11.763314	0.000000	0.058007	-0.077046	-1.231299	0.107724	-0.102471	-1.308255	0.095299	-0.187329	-1.308255	0.066296	-0.187329	-1.077386	0.053865	-0.157111	-1.000430	0.033145	-0.119344	-0.923474	0.414336	-0.871556	-6.848113	0.000000	0.000000	13.594036	-0.385284	13.222142	10.484390	-13.094279	53.521863	69.319727	14.287631	-19.548035	26.048334	15.473984	-6.808888	62.301156	47.968437	59.991416	-4.893102	-7.384091
0.312500	-3.128766	-5.268709	103.863878	0.080417	0.519281	0.803917	0.720143	1.515334	-14.256941	5.112203	0.089225	28.801099	16.037254	0.000000	4.474890	-0.772940	-4.391703	11.605616	0.202556	26.682785	11.484568	0.000000	0.049141	-0.070140	-1.214417	0.091260	-0.093286	-1.290318	0.080734	-0.170537	-1.290318	0.056164	-0.170537	-1.062615	0.045633	-0.143029	-0.986714	0.028079	-0.108646	-0.910813	0.351012	-0.793433	-6.754223	0.000000	0.000000	13.056362	-0.617022	13.184320	10.475402	-13.165352	53.618899	69.225162	15.574219	-19.483889	26.195908	15.384565	-6.864381	61.719225	48.333941	61.169486	-4.887112	-7.241706
0.333333	-3.063724	-5.198227	103.854906	0.080664	0.519215	0.803863	0.655545	1.619118	-14.243314	5.034738	0.087873	28.831191	16.168183	0.000000	4.406159	-0.860323	-4.459689	11.712219	0.204417	26.554175	11.143035	0.000000	0.037135	-0.065790	-1.177931	0.068964	-0.087501	-1.251552	0.061009	-0.159962	-1.251552	0.042442	-0.159962	-1.030690	0.034484	-0.134159	-0.957069	0.021219	-0.101909	-0.883448	0.265253	-0.744231	-6.551299	0.000000	0.000000	12.386068	-0.875464	12.975503	10.408832	-13.216394	53.600080	69.169139	16.453768	-19.885592	26.197105	15.300551	-6.908706	60.995411	48.779154	62.923240	-4.522659	-6.473045
0.354167	-3.011125	-5.093707	103.830556	0.080923	0.519193	0.803708	0.540108	1.722365	-14.176799	4.951808	0.086425	28.835755	16.245932	0.000000	4.276751	-0.939828	-4.474722	11.778855	0.205580	26.428813	10.767741	0.000000	0.022660	-0.061701	-1.129207	0.042083	-0.082062	-1.199782	0.037229	-0.150020	-1.199782	0.025899	-0.150020	-0.988056	0.021042	-0.125820	-0.917481	0.012948	-0.095575	-0.846905	0.161861	-0.697973	-6.280310	0.000000	0.000000	11.607564	-1.167789	12.708431	10.303425	-13.258354	53.494232	69.151179	16.859188	-20.658100	26.050213	15.173982	-6.945188	60.047774	49.305277	65.097572	-3.875161	-5.063940
0.375000	-2.972150	-4.955313	103.784049	0.081203	0.519218	0.803448	0.369908	1.825517	-14.038627	4.858728	0.084801	28.814346	16.249808	0.000000	4.088532	-1.010008	-4.446741	11.804997	0.206036	26.320358	10.362687	0.000000	0.006473	-0.058220	-1.065838	0.012021	-0.077432	-1.132453	0.010635	-0.141556	-1.132453	0.007398	-0.141556	-0.932608	0.006011	-0.118722	-0.865993	0.003699	-0.090182	-0.799378	0.046237	-0.658594	-5.927870	0.000000	0.000000	10.736872	-1.455328	12.353992	10.157592	-13.274638	53.277041	69.190228	16.723263	-21.913915	25.808642	15.014934	-6.976074	58.882901	49.903033	67.877996	-2.879337	-3.038075
